<svg width="22" height="22" viewBox="0 0 22 22" fill="none" xmlns="http://www.w3.org/2000/svg">
<path d="M18.2715 1.85632H3.90273C3.38308 1.85632 2.8847 2.06276 2.51725 2.43021C2.14979 2.79767 1.94336 3.29604 1.94336 3.8157L1.94336 18.1844C1.94336 18.7041 2.14979 19.2025 2.51725 19.5699C2.8847 19.9374 3.38308 20.1438 3.90273 20.1438H9.50532V13.9265H6.93364V11.0001H9.50532V8.76965C9.50532 6.23267 11.0157 4.83131 13.329 4.83131C14.4368 4.83131 15.5953 5.02888 15.5953 5.02888V7.51892H14.3189C13.0612 7.51892 12.6689 8.2994 12.6689 9.09989V11.0001H15.4765L15.0275 13.9265H12.6689V20.1438H18.2715C18.7911 20.1438 19.2895 19.9374 19.657 19.5699C20.0244 19.2025 20.2309 18.7041 20.2309 18.1844V3.8157C20.2309 3.29604 20.0244 2.79767 19.657 2.43021C19.2895 2.06276 18.7911 1.85632 18.2715 1.85632Z" fill="#F6F9FC"/>
</svg>
