<svg width="22" height="22" viewBox="0 0 22 22" fill="none" xmlns="http://www.w3.org/2000/svg">
<g clip-path="url(#clip0_702_506)">
<path d="M7.97521 17.0986C7.97521 17.1802 7.88133 17.2455 7.76295 17.2455C7.62824 17.2578 7.53436 17.1924 7.53436 17.0986C7.53436 17.0169 7.62824 16.9516 7.74662 16.9516C7.86908 16.9394 7.97521 17.0047 7.97521 17.0986ZM6.7057 16.9149C6.67713 16.9965 6.75877 17.0904 6.88123 17.1149C6.98736 17.1557 7.10982 17.1149 7.13432 17.0332C7.15881 16.9516 7.08125 16.8577 6.95879 16.821C6.85266 16.7924 6.73428 16.8332 6.7057 16.9149ZM8.50996 16.8455C8.39158 16.874 8.30994 16.9516 8.32219 17.0455C8.33443 17.1271 8.44057 17.1802 8.56303 17.1516C8.68141 17.123 8.76305 17.0455 8.7508 16.9639C8.73855 16.8863 8.62834 16.8332 8.50996 16.8455ZM11.1959 1.20312C5.53416 1.20312 1.20312 5.5015 1.20312 11.1633C1.20312 15.6903 4.05238 19.5641 8.12217 20.9275C8.64467 21.0214 8.82836 20.6989 8.82836 20.4336C8.82836 20.1805 8.81611 18.7844 8.81611 17.9272C8.81611 17.9272 5.95869 18.5395 5.35863 16.7108C5.35863 16.7108 4.89328 15.5229 4.22383 15.2167C4.22383 15.2167 3.28904 14.5759 4.28914 14.5881C4.28914 14.5881 5.30557 14.6697 5.8648 15.6413C6.75877 17.2169 8.25688 16.7638 8.84061 16.4944C8.93449 15.8413 9.19983 15.3882 9.49373 15.1188C7.21188 14.8657 4.90961 14.535 4.90961 10.6081C4.90961 9.48557 5.21984 8.92225 5.87297 8.20381C5.76684 7.93848 5.41986 6.84449 5.9791 5.43211C6.83225 5.16678 8.7957 6.53426 8.7957 6.53426C9.61211 6.30567 10.4897 6.18729 11.3592 6.18729C12.2287 6.18729 13.1063 6.30567 13.9227 6.53426C13.9227 6.53426 15.8862 5.1627 16.7393 5.43211C17.2986 6.84858 16.9516 7.93848 16.8455 8.20381C17.4986 8.92633 17.8986 9.48965 17.8986 10.6081C17.8986 14.5473 15.4943 14.8616 13.2125 15.1188C13.588 15.4413 13.9064 16.0536 13.9064 17.0128C13.9064 18.3885 13.8942 20.0907 13.8942 20.4254C13.8942 20.6907 14.0819 21.0132 14.6004 20.9193C18.6824 19.5641 21.45 15.6903 21.45 11.1633C21.45 5.5015 16.8577 1.20312 11.1959 1.20312ZM5.17086 15.2821C5.11779 15.3229 5.13004 15.4168 5.19943 15.4943C5.26475 15.5596 5.35863 15.5882 5.4117 15.5351C5.46477 15.4943 5.45252 15.4004 5.38313 15.3229C5.31781 15.2576 5.22393 15.229 5.17086 15.2821ZM4.73 14.9514C4.70143 15.0045 4.74225 15.0698 4.82389 15.1106C4.8892 15.1514 4.97084 15.1392 4.99941 15.082C5.02799 15.029 4.98717 14.9637 4.90553 14.9228C4.82389 14.8983 4.75857 14.9106 4.73 14.9514ZM6.05258 16.4046C5.98727 16.4577 6.01176 16.5801 6.10564 16.6577C6.19953 16.7516 6.31791 16.7638 6.37098 16.6985C6.42404 16.6455 6.39955 16.523 6.31791 16.4454C6.22811 16.3515 6.10565 16.3393 6.05258 16.4046ZM5.58723 15.8046C5.52191 15.8454 5.52191 15.9515 5.58723 16.0454C5.65254 16.1393 5.76275 16.1801 5.81582 16.1393C5.88113 16.0862 5.88113 15.9801 5.81582 15.8862C5.75867 15.7923 5.65254 15.7515 5.58723 15.8046Z" fill="#F6F9FC"/>
</g>
<defs>
<clipPath id="clip0_702_506">
<rect width="20.9" height="20.9" fill="white" transform="translate(0.549805 0.550049)"/>
</clipPath>
</defs>
</svg>
